# xmcd
#
# Track frame offsets: 
#        150
#        22508
#        44841
#        68872
#        89298
#        104167
#        124431
#        147978
#        161959
#        183891
#
# Disc length: 2699 seconds
#
# Revision: 8
# Processed by: cddbd v1.5.2PL0 Copyright (c) Steve Scherf et al.
# Submitted via: ExactAudioCopy v1.0b1
#
DISCID=910a890a
DTITLE=許景淳 - 純 景淳
DYEAR=1997
DGENRE=Pop
TTITLE0=我願意
TTITLE1=最愛
TTITLE2=秋意濃
TTITLE3=我只在乎你
TTITLE4=滾滾紅塵
TTITLE5=潮騷
TTITLE6=妳是我所有的回憶
TTITLE7=花心
TTITLE8=我站在全世界的屋頂
TTITLE9=晚安曲
EXTD=YEAR: 1997
EXTT0=
EXTT1=
EXTT2=
EXTT3=
EXTT4=
EXTT5=
EXTT6=
EXTT7=
EXTT8=
EXTT9=
PLAYORDER=
